<?xml version="1.0" encoding="UTF-8"?>
<svg id="_レイヤー_2" data-name="レイヤー 2" xmlns="http://www.w3.org/2000/svg" xmlns:xlink="http://www.w3.org/1999/xlink" viewBox="0 0 265.56 166.75">
  <defs>
    <style>
      .cls-1 {
        fill: none;
      }

      .cls-2 {
        fill: url(#_名称未設定グラデーション_10-2);
      }

      .cls-3 {
        fill: url(#_名称未設定グラデーション-2);
      }

      .cls-4 {
        clip-path: url(#clippath-1);
      }

      .cls-5 {
        clip-path: url(#clippath-3);
      }

      .cls-6 {
        clip-path: url(#clippath-2);
      }

      .cls-7 {
        fill: url(#_名称未設定グラデーション);
      }

      .cls-8 {
        clip-path: url(#clippath);
      }

      .cls-9 {
        fill: url(#_名称未設定グラデーション_10);
      }
    </style>
    <clipPath id="clippath">
      <path class="cls-1" d="M91.4,31.22c-2.72,4.2-9.87,12.26-15.44,19.31-5.34,6.81-15.56,19.98-21.23,27.82-5.91,8.06-8.52,10.79-11.24,13.29-2.27,2.05-3.74,2.05-4.43,5.57-.23,1.02-1.48,6.7-1.48,10.9,0,3.86,2.27,5.56,5.45,6.36.46.11.91.22,1.36.22,2.84,0,4.55-2.61,6.25-6.7,6.93-16.58,18.05-37.59,25.89-49.06,3.97-5.68,19.98-27.03,25.55-29.75l-.22-1.13c-.68-.12-1.7-.12-2.73-.12-5.45,0-6.47,1.25-7.72,3.29"/>
    </clipPath>
    <linearGradient id="_名称未設定グラデーション" data-name="名称未設定グラデーション" x1="-208.8" y1="256.04" x2="-205.3" y2="256.04" gradientTransform="translate(1609.17 1312.51) rotate(90) scale(6.01)" gradientUnits="userSpaceOnUse">
      <stop offset="0" stop-color="#c3ca70"/>
      <stop offset=".52" stop-color="#9fb01c"/>
      <stop offset="1" stop-color="#819518"/>
    </linearGradient>
    <clipPath id="clippath-1">
      <path class="cls-1" d="M79.92,71.08v1.13c7.05-.23,17.94-.11,32.25,20.1,4.44,6.36,10.11,17.37,16.25,21.69,2.04,1.36,3.75,1.93,5.22,1.93,4.2,0,8.74-5.68,8.74-10.34,0-2.38-1.14-4.31-3.29-5.79-5.57-3.98-9.77-7.04-16.81-12.72-5.11-4.2-12.94-10.11-19.53-13.29-3.98-2.05-7.5-3.64-13.63-3.64-2.61,0-5.56.23-9.2.91"/>
    </clipPath>
    <linearGradient id="_名称未設定グラデーション_10" data-name="名称未設定グラデーション 10" x1="-221.07" y1="234.19" x2="-217.57" y2="234.19" gradientTransform="translate(4025.75 -4087.01) scale(17.85)" gradientUnits="userSpaceOnUse">
      <stop offset="0" stop-color="#ca6b00"/>
      <stop offset=".02" stop-color="#ca6b00"/>
      <stop offset=".07" stop-color="#d47918"/>
      <stop offset=".11" stop-color="#dd862d"/>
      <stop offset=".13" stop-color="#e3882b"/>
      <stop offset=".18" stop-color="#ee8e29"/>
      <stop offset=".24" stop-color="#f29029"/>
      <stop offset=".33" stop-color="#f2902b"/>
      <stop offset=".36" stop-color="#f29432"/>
      <stop offset=".39" stop-color="#f29a3e"/>
      <stop offset=".41" stop-color="#f2a250"/>
      <stop offset=".43" stop-color="#f3ad67"/>
      <stop offset=".51" stop-color="#f2a14e"/>
      <stop offset=".6" stop-color="#f29029"/>
      <stop offset=".8" stop-color="#ed8b24"/>
      <stop offset=".82" stop-color="#ed8d29"/>
      <stop offset=".85" stop-color="#ef963a"/>
      <stop offset=".88" stop-color="#f1a455"/>
      <stop offset=".89" stop-color="#f3ad67"/>
      <stop offset=".96" stop-color="#f7c07f"/>
      <stop offset="1" stop-color="#fbd193"/>
    </linearGradient>
    <clipPath id="clippath-2">
      <path class="cls-1" d="M194.76,54.99c-2.73,4.2-9.88,12.26-15.44,19.3-5.34,6.82-15.56,19.99-21.23,27.82-5.91,8.07-8.52,10.79-11.24,13.29-2.27,2.04-3.75,2.04-4.43,5.56-.22,1.03-1.48,6.7-1.48,10.9,0,3.86,2.27,5.56,5.45,6.36.46.11.91.23,1.37.23,2.84,0,4.54-2.61,6.24-6.7,6.92-16.58,18.05-37.59,25.89-49.06,3.97-5.68,19.99-27.03,25.55-29.75l-.23-1.13c-.68-.11-1.7-.11-2.73-.11-5.45,0-6.47,1.25-7.72,3.29"/>
    </clipPath>
    <linearGradient id="_名称未設定グラデーション_10-2" data-name="名称未設定グラデーション 10" x1="-217.08" y1="213.2" x2="-213.58" y2="213.2" gradientTransform="translate(-5775.03 5985.31) rotate(-180) scale(27.63)" xlink:href="#_名称未設定グラデーション_10"/>
    <clipPath id="clippath-3">
      <path class="cls-1" d="M183.29,94.85v1.13c7.04-.22,17.94-.11,32.25,20.1,4.43,6.36,10.11,17.38,16.24,21.69,2.05,1.36,3.75,1.93,5.23,1.93,4.2,0,8.74-5.68,8.74-10.34,0-2.38-1.13-4.31-3.29-5.79-5.57-3.98-9.76-7.04-16.81-12.72-5.11-4.2-12.95-10.11-19.53-13.29-3.97-2.04-7.5-3.64-13.63-3.64-2.61,0-5.56.23-9.2.91"/>
    </clipPath>
    <linearGradient id="_名称未設定グラデーション-2" data-name="名称未設定グラデーション" x1="-228.84" y1="212.13" x2="-225.34" y2="212.13" gradientTransform="translate(-4185.09 -4594.66) rotate(-90) scale(20.74)" xlink:href="#_名称未設定グラデーション"/>
  </defs>
  <g id="_レイヤー_1-2" data-name="レイヤー 1">
    <g>
      <g class="cls-8">
        <rect class="cls-7" x="16.13" y="21.69" width="107.38" height="99.24" transform="translate(-26.85 96.12) rotate(-60)"/>
      </g>
      <g class="cls-4">
        <rect class="cls-9" x="79.92" y="70.17" width="62.46" height="45.77"/>
      </g>
      <g class="cls-6">
        <rect class="cls-2" x="123.56" y="41.38" width="99.24" height="107.38" transform="translate(-24.34 99.33) rotate(-30)"/>
      </g>
      <g class="cls-5">
        <rect class="cls-3" x="179.08" y="78.33" width="70.86" height="76.97" transform="translate(6.09 244.19) rotate(-60)"/>
      </g>
    </g>
  </g>
</svg>