<?xml version="1.0" encoding="UTF-8"?>
<svg id="_レイヤー_2" data-name="レイヤー 2" xmlns="http://www.w3.org/2000/svg" viewBox="0 0 168 48.91">
  <defs>
    <style>
      .cls-1 {
        fill: #595757;
      }
    </style>
  </defs>
  <g id="_レイヤー_1-2" data-name="レイヤー 1">
    <g>
      <path class="cls-1" d="M48.6,27.81c-2.7,2-6.85,2.55-10.26,2.18h-.03c-.7-.09-.52-1.14.12-1.07,3.16.19,6.76-.77,9.03-2.58,2.37-2.09,2.15-4.73,1.01-5.81-1.9-1.54-5.13-1.11-7.19-.31-1.35.52-2.3,1.16-2.95,1.63-.43.31-.95.95-1.54.95-.52,0-.95-.43-.95-.95v-2.55c0-1.44-.03-3.69.22-5.8,0-.09-.06-.15-.12-.15h-3.9c-.86,0-.83-1.26,0-1.26h4.08c.09,0,.15-.03.15-.12.46-2.3,1.44-4.42,3.41-5.74.92-.52,1.72.64.89,1.26v.03c-1.35,1.17-2.09,2.7-2.49,4.45-.03.06.03.12.09.12h6.39c2.76,0,3.57-1.41,3.6-1.47.43-.71,1.47-.15,1.14.58-.06.06-1.17,2.15-4.73,2.15h-6.51c-.06,0-.15.06-.15.15-.24,2.55-.15,4.52-.15,6.82,0,.25.31.4.52.25.61-.43,1.42-.92,2.55-1.38,2.4-.95,5.65-1.72,8.66.22,2.52,1.81,2.83,5.68-.89,8.42"/>
      <path class="cls-1" d="M76.43,18.81h-3.41c-.09,0-.15.03-.15.12-.06,1.04-.18,1.96-.34,2.86-1.11,6.05-6.18,9.71-11.24,12.5-.55.34-1.08-.52-.55-.89,4.79-3.01,9.19-6.67,10.11-12.51.09-.58.15-1.2.19-1.96,0-.09-.06-.12-.12-.12h-6.76c-.09,0-.12.03-.12.12v6.05c0,1.29-1.9,1.32-1.9,0v-6.05c0-.09-.06-.12-.12-.12h-5.47c-.83,0-.83-1.26,0-1.26h5.47c.06,0,.12-.06.12-.12v-3.26c0-.58-.4-1.01-.89-1.01h-.71c-.77,0-.77-1.17,0-1.17h.86c1.72,0,2.64.98,2.64,2.67v2.77c0,.06.03.12.12.12h6.82c.06,0,.12-.06.12-.12.03-1.72-.09-3.41-.06-5.04,0-1.23,1.9-1.26,1.9,0,.03,1.66.06,3.35.03,5.04,0,.06.03.12.12.12h3.35c2.46,0,3.19-1.41,3.22-1.47.37-.74,1.47-.12,1.14.55-.03.09-1.04,2.18-4.36,2.18"/>
      <path class="cls-1" d="M84.6,30.37c-.92,1.19-2.12,2.18-3.22,3.19-.46.4-1.2-.25-.77-.77.83-.92,1.72-1.81,2.42-2.82.8-1.17,1.07-2.34,1.07-3.75.09-1.26,1.97-1.2,1.97.03-.12,1.6-.55,2.92-1.48,4.12M93.57,22.81c-.06,0-.12.06-.12.12v12.84c0,1.11-1.38,1.29-1.69.27-.03-.06-.06-.15-.06-.24,0-.8-.61-1.29-1.81-2.12l-.98-.68c-.58-.52.12-1.38.71-.95l1.6,1.14c.21.15.49,0,.49-.25v-10.02c0-.06-.06-.12-.12-.12h-9.34c-.77,0-.83-1.26,0-1.26h9.34c.06,0,.12-.06.12-.15v-5.32c0-1.2,1.75-1.2,1.75,0v5.32c0,.09.06.15.12.15h5.5c2.46,0,3.19-1.42,3.22-1.48.37-.74,1.5-.19,1.14.52-.03.09-1.04,2.21-4.36,2.21h-5.5ZM103.4,13.26c.58.65.86,1.38.86,2.21,0,.99-.37,1.78-1.07,2.46-.65.58-1.35.86-2.21.86-.98,0-1.78-.37-2.46-1.11-.58-.61-.86-1.38-.86-2.21,0-.95.37-1.75,1.11-2.39.61-.58,1.38-.89,2.21-.89.95,0,1.75.37,2.43,1.07M104.14,32.43c.15,1.29-1.81,1.57-1.97.28-.06-.37,0-.74-.06-1.11-.12-.83-.52-1.6-1.01-2.27-.83-1.2-1.94-2.24-2.92-3.35-.46-.46.28-1.14.71-.71,1.14.98,2.37,1.93,3.41,3.07,1.08,1.23,1.63,2.49,1.84,4.09M99.31,14.03c-.37.43-.55.89-.55,1.44,0,.65.22,1.2.74,1.66.43.37.89.55,1.47.55.65,0,1.2-.21,1.63-.73.37-.43.58-.89.58-1.48,0-.65-.24-1.17-.77-1.6-.4-.4-.89-.61-1.45-.61-.65,0-1.2.28-1.66.77"/>
      <path class="cls-1" d="M121.42,21.88l.86-1.04c.22-.25.46-.28.71-.06.92.77,1.38,1.29,1.38,1.57,0,.12-.06.25-.21.37l-.71.46v10.29c0,.34-.19.49-.49.49h-.77c-.31,0-.49-.15-.49-.49v-1.01h-6.18v1.44c0,.34-.15.5-.46.5h-.77c-.31,0-.46-.15-.46-.5v-10.1c-1.14.95-2.42,1.93-3.96,2.98-.25.15-.5.12-.68-.12-.12-.18-.06-.37.18-.55,3.17-2.42,5.84-5.01,7.99-7.71h-6.91c-.27,0-.43-.09-.55-.37-.09-.22.09-.37.43-.37h5.34v-4.55h-4.18c-.27,0-.43-.12-.55-.37-.09-.24.09-.4.43-.4h4.45v-4.42c0-.31.15-.49.52-.46,1.6.09,2.42.31,2.42.71,0,.24-.4.55-1.19.89v3.29h1.26l.86-1.29c.21-.28.46-.31.68-.06.43.4.77.86,1.14,1.32l.09-.15c.55-.89,1.05-1.94,1.63-3.04.12-.28.37-.37.65-.22,1.29.61,1.94,1.11,1.94,1.45,0,.24-.46.4-1.42.43-1.47,2.61-2.95,4.85-4.49,6.76h2.68l1.16-1.54c.22-.25.46-.25.68-.03.43.46.83.95,1.23,1.44.19.22.19.43.06.68-.09.15-.25.21-.52.21h-5.9c-.98,1.2-2.12,2.4-3.35,3.6h5.47ZM115.52,26.64h6.18v-3.99h-6.18v3.99ZM121.69,27.41h-6.18v4.24h6.18v-4.24ZM117.98,17.64c1.04-1.35,2.06-2.86,3.07-4.55h-3.65v4.55h.58ZM136.93,25.84c0,2.73-1.01,4.27-2.98,4.61-.31.03-.43-.12-.55-.43-.12-.34-.4-.61-.83-.83-.37-.15-1.04-.37-2.06-.55-.31-.06-.46-.25-.46-.52,0-.22.19-.34.52-.31,1.14.15,2,.22,2.64.22,1.23,0,1.84-.95,1.84-2.89,0-2.52-1.2-4.85-3.62-7.03-.22-.22-.25-.4-.15-.68,1.04-2.3,1.88-4.73,2.58-7.34h-4.85v24.24c0,.31-.19.46-.49.46h-.8c-.34,0-.49-.15-.49-.46V8.89c0-.4.25-.55.58-.37.46.24.92.49,1.42.8h4.55l.7-.98c.22-.24.46-.27.71-.03,1.04.99,1.57,1.6,1.57,1.81,0,.12-.09.25-.31.34l-.77.34c-1.32,3.04-2.49,5.31-3.5,6.88,3.17,2.21,4.76,4.95,4.76,8.17"/>
      <path class="cls-1" d="M145.65,15.85v9.68c1.11-.55,2.06-1.02,2.86-1.45.24-.15.49-.06.61.22.09.18,0,.34-.24.49-2.37,1.69-4.61,3.1-6.64,4.21-.06.77-.22,1.17-.46,1.17-.4,0-.86-.7-1.35-2.12-.12-.31,0-.52.31-.61,1.35-.46,2.4-.86,3.2-1.17v-10.41h-2.86c-.25,0-.43-.12-.52-.37-.09-.24.09-.4.43-.4h2.95v-7.43c0-.31.19-.5.52-.46,1.69.09,2.52.37,2.52.77,0,.25-.43.52-1.32.8v6.33h.98l.98-1.35c.19-.25.43-.28.68-.03.31.37.61.73.95,1.2.15.21.15.43.03.67-.09.19-.27.28-.55.28h-3.07ZM162.33,24.05c.92-1.81,1.78-4.03,2.55-6.64.09-.34.37-.43.65-.24,1.23.67,1.84,1.23,1.84,1.62,0,.28-.22.4-.74.4-.15,0-.31-.03-.46-.03-.89,2.55-1.96,4.85-3.26,6.97.61,1.51,1.32,2.86,2.15,4.15.37.58.61.86.77.86.4,0,.8-1.69,1.26-5.07.03-.37.28-.52.58-.34.19.09.28.28.25.55-.31,2.64-.46,4.33-.46,5.04s.12,1.17.37,1.5c.15.22.25.43.09.68-.28.46-.65.68-1.14.68-.61,0-1.42-.61-2.37-1.78-.86-1.07-1.72-2.58-2.58-4.55l-.12.19c-1.57,2.37-3.9,4.24-6.73,5.81-.28.15-.52.09-.68-.15-.12-.19-.06-.37.19-.55,2.58-1.72,4.76-4.03,6.57-6.91-1.14-3.65-1.84-7.71-2.12-12.17h-6.94v4.98h3.35l.77-.92c.22-.22.46-.25.71-.03.89.73,1.35,1.26,1.35,1.47,0,.12-.06.22-.21.31l-.71.52v1.26c0,3.99-.34,6.27-.95,6.91-.43.46-.96.74-1.57.8-.31.06-.43-.12-.55-.4-.18-.52-.7-.89-1.57-1.17-.27-.06-.43-.21-.43-.52,0-.21.22-.31.52-.27.46.06.95.12,1.38.12.73,0,1.14-.4,1.23-1.17.15-1.14.22-3.2.25-6.14h-3.57v.58c0,6.05-1.47,10.63-4.45,13.73-.21.25-.46.25-.67.03-.19-.15-.19-.37,0-.61,2.24-3.04,3.34-7.4,3.34-13.15v-7.59c0-.37.25-.52.58-.37.46.25.96.55,1.48.86h6.6c-.09-1.69-.15-3.72-.15-6.05,0-.31.19-.49.52-.46,1.6.09,2.37.37,2.37.74,0,.21-.34.46-1.08.77,0,2.03.03,3.66.09,4.92h4.64l.83-1.05c.22-.27.43-.31.68-.09.4.34.71.67.98.98.15.22.15.43.03.68-.09.18-.27.24-.52.24h-6.6c.22,3.81.73,7.28,1.5,10.39l.15-.31ZM162.85,7.89c1.91.92,2.86,1.94,2.86,3.04,0,.73-.37,1.11-1.08,1.11-.52,0-.83-.37-.96-1.14-.12-.8-.55-1.57-1.32-2.34-.22-.22-.28-.4-.12-.58.12-.19.34-.22.61-.09"/>
      <path class="cls-1" d="M144.87,36.52c-5.81,7.18-16.78,7.87-25.34,9.26-22.33,3.04-45.34,1.11-66.9-5.38-4.95-1.47-10.2-3.35-14.96-5.36-3.68-1.5-7.28-3.19-10.81-5.02-.57-.28-1.13-.61-1.72-.86-.09-.07-.19-.13-.31-.19-2.71-1.44-4.79-2.41-8.98-3.39-.09-.04-.17-.13-.17-.21v-9.74c0-.09.09-.17.21-.17h4.96c4.57,0,5.97-2.92,6.02-3.01.46-1.06-1.06-1.78-1.57-.76-.04.09-1.06,2.03-4.45,2.03h-4.96c-.13,0-.21-.09-.21-.17V1.31c0-1.78-2.54-1.74-2.54.04v12.25c0,.09-.09.17-.17.17h-6.82c-.21,0-.3-.34-.04-.43,2.08-.89,4.66-1.95,5.04-4.96C12,3.09,3.83,3.39.86,3.69c-1.23.13-1.1,2.2.13,2.12,1.4-.09,8.81-.85,8.43,2.41-.29,3.14-6.18,4.91-8.39,5.47-1.06.21-1.06,1.78.09,1.78h11.86c.09,0,.17.09.17.17v9.15c0,.09-.09.17-.17.13-3.43-.51-6.99-.97-9.96.26-1.95.85-3.56,2.54-2.8,4.83.63,1.82,2.63,2.63,4.36,3.05,1.14.3,2.33.34,3.52.3,2.46-.09,5.68-.6,6.95-3.18.42-.85.55-1.69.59-2.5,0-.09.13-.12.21-.09,3.71,1.3,5.79,2.07,8.24,3.43.57.36,1.19.63,1.78.95,1.2.6,2.37,1.26,3.61,1.79,4.78,2.24,9.89,4.42,14.9,6.14,23.98,8.53,50.18,11.13,75.35,7.28,8.8-1.63,19.9-2.58,25.76-10.17l-.63-.48ZM12.81,29.11c-.76,1.61-3.09,2.16-4.79,2.29-1.99.17-4.28-.13-5.63-1.23-1.14-.97-.6-2.54.55-3.26,1.02-.68,2.37-.85,3.6-.89,2.08-.09,4.11.34,6.4.8.13,0,.17.09.17.21,0,.8-.09,1.53-.3,2.08"/>
    </g>
  </g>
</svg>